<?xml version="1.0" encoding="UTF-8" standalone="no"?>
<!DOCTYPE svg PUBLIC "-//W3C//DTD SVG 1.1//EN" "http://www.w3.org/Graphics/SVG/1.1/DTD/svg11.dtd">

<!-- Created with Vectornator (http://vectornator.io/) -->
<svg height="100%" stroke-miterlimit="10" style="fill-rule:nonzero;clip-rule:evenodd;stroke-linecap:round;stroke-linejoin:round;" version="1.1" viewBox="0 0 1024 1024" width="100%" xml:space="preserve" xmlns="http://www.w3.org/2000/svg" xmlns:vectornator="http://vectornator.io" xmlns:xlink="http://www.w3.org/1999/xlink">
<metadata>
<vectornator:setting key="IsTimeLapseWatermarkDisabled" value="false"/>
<vectornator:setting key="UndoHistoryDisabled" value="true"/>
<vectornator:setting key="VNDimensionsVisible" value="true"/>
<vectornator:setting key="VNSnapToGuides" value="true"/>
<vectornator:setting key="WDCMYKEnabledKey" value="false"/>
<vectornator:setting key="WDDisplayWhiteBackground" value="false"/>
<vectornator:setting key="WDDynamicGuides" value="false"/>
<vectornator:setting key="WDGuidesVisible" value="true"/>
<vectornator:setting key="WDIsolateActiveLayer" value="false"/>
<vectornator:setting key="WDOutlineMode" value="false"/>
<vectornator:setting key="WDRulersVisible" value="true"/>
<vectornator:setting key="WDSnapToEdges" value="false"/>
<vectornator:setting key="WDSnapToGrid" value="false"/>
<vectornator:setting key="WDSnapToPoints" value="false"/>
<vectornator:setting key="WDUnits" value="Pixels"/>
</metadata>
<defs/>
<clipPath id="ArtboardFrame">
<rect height="1024" width="1024" x="0" y="0"/>
</clipPath>
<g clip-path="url(#ArtboardFrame)" id="Layer-1" vectornator:layerName="Layer 1">
<g opacity="1">
<path d="M17.8101 524.571L205.394 379.85L392.33 404.108L433.892 493.137L477.273 473.312L566.555 471.469L610.904 505.196L638.635 475.818L688.052 475.337L710.092 496.881L733.583 475.049L746.118 413.118L854.931 383.311L908.046 439.341L921.082 515.749" fill="none" fill-rule="evenodd" opacity="1" stroke="#000000" stroke-linecap="butt" stroke-linejoin="bevel" stroke-width="24.3659"/>
<path d="M18.3263 522.124L205.91 666.845L392.846 642.587L434.408 553.558L477.789 573.383L567.071 575.226L611.42 541.499L639.151 570.877L688.568 571.358L710.608 549.814L734.099 571.646L746.634 633.577L855.447 663.384L906.784 602.991L921.598 530.946" fill="none" fill-rule="evenodd" opacity="1" stroke="#000000" stroke-linecap="butt" stroke-linejoin="bevel" stroke-width="24.3659"/>
<path d="M668.422 473.737L689.578 342.31L874.988 256.605" fill="none" fill-rule="evenodd" opacity="1" stroke="#000000" stroke-linecap="butt" stroke-linejoin="miter" stroke-width="24.3659"/>
<path d="M579.383 478.457L584.839 345.668L624.343 222.319" fill="none" fill-rule="evenodd" opacity="1" stroke="#000000" stroke-linecap="butt" stroke-linejoin="miter" stroke-width="24.3659"/>
<path d="M499.142 476.166L475.731 349.27L294.401 257.073" fill="none" fill-rule="evenodd" opacity="1" stroke="#000000" stroke-linecap="butt" stroke-linejoin="miter" stroke-width="24.3659"/>
<path d="M664.969 573.291L686.125 679.196L871.534 748.256" fill="none" fill-rule="evenodd" opacity="1" stroke="#000000" stroke-linecap="butt" stroke-linejoin="miter" stroke-width="24.3659"/>
<path d="M575.929 568.58L581.385 701.938L620.889 825.814" fill="none" fill-rule="evenodd" opacity="1" stroke="#000000" stroke-linecap="butt" stroke-linejoin="miter" stroke-width="24.3659"/>
<path d="M496.107 572.131L472.696 682.683L291.366 763.005" fill="none" fill-rule="evenodd" opacity="1" stroke="#000000" stroke-linecap="butt" stroke-linejoin="miter" stroke-width="24.3659"/>
<path d="M891.984 418.932L1013.57 347.124" fill="none" fill-rule="evenodd" opacity="1" stroke="#000000" stroke-linecap="butt" stroke-linejoin="round" stroke-width="24.3659"/>
<path d="M885.643 624.22L1007.23 696.027" fill="none" fill-rule="evenodd" opacity="1" stroke="#000000" stroke-linecap="butt" stroke-linejoin="round" stroke-width="24.3659"/>
</g>
<path d="M96.6577 518.077L219.562 424.458L364.381 442.404L400.019 518.762L286.968 518.507L96.6577 518.077Z" fill="#000000" fill-rule="evenodd" opacity="1" stroke="none"/>
<path d="M769.325 522.878L782.672 453.515L842.057 432.855L870.107 462.056L876.172 524.853L769.325 522.878Z" fill="#000000" fill-rule="evenodd" opacity="1" stroke="none"/>
</g>
</svg>
